<?xml version="1.0" encoding="utf-8"?>
<svg version="1.1" xmlns="http://www.w3.org/2000/svg" xmlns:xlink="http://www.w3.org/1999/xlink" x="0px" y="0px"
	 viewBox="0 0 1000 1000" style="enable-background:new 0 0 1000 1000;" xml:space="preserve">
<style type="text/css">
	.st0{fill:none;}
	.st1{font-family:'EngraversMT';}
	.st2{font-size:700px;}
</style>
<g id="00000006708175160972841240000003714969196546718605_">
	<g transform="translate(0.000000,1000.000000) scale(0.100000,-0.100000)">
		<path d="M4657.2,9980.1c-628-43-1292-217-1784-468c-385-196-473-243-576-310c-1072-689-1824-1724-2144-2950
			c-70-267-102-445-143-780c-22-183-25-730-5-920c86-821,323-1528,734-2192c367-592,903-1145,1473-1519c290-191,628-372,902-483
			c681-277,1472-406,2193-356c1335,93,2558,696,3432,1691c427,487,751,1041,965,1649c451,1280,359,2670-256,3898
			c-179,358-351,617-619,932c-12,14-49,59-83,100c-392,479-999,943-1614,1235C6371.2,9869.1,5485.2,10038.1,4657.2,9980.1z
			 M6861.2,682.1c-18,0-204-59-299-94c-57-22-171-58-330-104c-38-12-119-32-178-47c-59-14-122-32-140-40c-18-7-54-20-82-28
			c-27-8-88-26-135-40c-114-34-164-44-305-62c-66-9-142-20-170-25c-27-5-77-12-110-16c-33-3-80-10-105-15c-124-24-677,9-910,55
			c-397,77-667,165-760,246c-24,20-71,47-232,129c-75,39-161,86-190,104c-29,19-81,49-116,66c-96,48-473,274-597,357
			c-61,41-138,101-170,135c-33,34-114,114-180,178c-193,188-353,353-388,399c-18,24-61,76-96,115c-35,40-75,90-89,112s-43,58-64,81
			c-22,23-54,62-71,86c-17,23-56,70-86,104c-60,65-146,194-206,309s-89,166-139,245c-53,85-196,373-232,468c-14,35-33,80-43,100
			c-22,43-154,432-175,512c-7,30-23,107-35,170s-26,138-31,165c-45,225-65,475-65,810c0,232,8,286,72,489c19,60,45,155,58,211
			c13,56,35,137,48,181c14,43,41,135,62,204c59,199,111,348,216,610c138,348,193,465,322,694c63,110,152,269,197,351
			c118,213,194,327,257,385c30,27,58.5,47.5,64,50c5.5,2.5,27,13,47,29c37.3,25,57.2,29.9,94.7,39.3c16.3,1,47.3,21.7,102.3,72.7
			c233,215,310,276,560,447c176,120,341,202,406,202c47,0,239,97,350,177c230,166,379,232,817,364c261,78,350,90,872,120
			c107,6,197,13,199,15c8,8,575.4,4,640.4-4c114.1-4.4,201.6-35,365.6-72c85-19,129-32,335-95c47-14,147-41,223-59
			c280-69,788-237,947-312c117-56,132.1-76.9,144-95c3-6.4,4.9-4.4,6-9c1.1-4.6,0.8-6.8,2.8-16.3c0.5-9,2.6-7.5,3.3-9.4
			c3-7.6,4-5,7-16c2.6-12.1,5.4-19.4,7-25c27.7-38.3,31.5-22.6,52.9-43.3c180-123,363-266,448-350c154-153,307-329,390-450
			c28-41,63-90,78-110c16-19,40-55,54-80c15-25,81-101,149-170c217-222,263-275,319-366c60-97,114-218,149-333
			c44-144,112-298,229-521c144-272,181-360,207-495c16-83,23-122,23-135c1-155,36-356,111-640c46-178,54-252,46-455
			c-3-98-11-243-17-320c-18-240-104-716-170-940c-32-110-111-349-119-360c-3-5-15-32-25-60c-35-96-52.9-111.2-79.2-125
			c-13.1-3.6-22.3-12-25.8-14c-11.6-6.5-10-8-23-15s-38-38-57-69c-18-31-44.2-58.2-48.2-61.2c-86.4-80.5-112.8-106.8-362.8-625.8
			c-56-118-120-198-176-222c-18-7-33-20-33-29c0-8-4-13-9-9c-9,5-71-47-71-61c0-3-26-29-57-58c-31-28-64-60-72-70c-9-10-28-33-43-51
			c-16-18-28-37-28-43c0-5-7-12-15-16c-8-3-15-11-15-17c0-10-29-48-78-104c-10-11-19-24-20-30c-7-39-260.9-271.8-289-285
			c-8-3.7-9-5.6-13-10c-4.4-4.8-8.5-5.3-15-10c-6.8-4.9-11.6-6.3-15-10c-5.9-6.4-8-14-17-17c-10-4-23-12-29-17c-28-27-65-56-70-56
			s-82-55-111-80c-7-5-17-10-23-10c-5,0-10-4-10-10c0-5-7-10-15-10s-15-4-15-9s-8-12-19-16c-10-3-31-17-46-31s-29-23-32-20
			s-17-6-31-20c-15-13-32.7-21-39-24c-6.6-3.2-10.5-7.3-13-13c-2.7-6.4-17-21-37-32c-21-11-44-26-51-33c-8-7-14.3-5.5-22-7
			c-5.7-1.1-6.6-1.7-10.7-4.3c-11.8-6.1-82.9-54-151.3-88.7c-16-7-24.3-19.7-28-23c-5-4.4-3.4-3.2-7.6-5.6
			c-6.8-2.1-29.4-9.4-55.4-21.4c-27-12-53-22-58-22s-17-4-27-9"/>
	</g>
	<path d="M716.7,919.9"/>
</g>
<g id="00000052822649216421184020000014234705694479880632_">
	<rect x="164" y="295" class="st0" width="879" height="636"/>
	<text transform="matrix(1 0 0 1 164 772.3945)" class="st1 st2">W</text>
</g>
</svg>
