<svg version="1.1" xmlns="http://www.w3.org/2000/svg" xmlns:xlink="http://www.w3.org/1999/xlink" width="40.25699" height="40.26432" viewBox="0,0,40.25699,40.26432"><defs><linearGradient x1="239.93063" y1="160.14941" x2="239.93063" y2="199.86255" gradientUnits="userSpaceOnUse" id="color-1"><stop offset="0" stop-color="#66ffbb"/><stop offset="1" stop-color="#66fffc"/></linearGradient></defs><g transform="translate(-219.83766,-159.79814)"><g data-paper-data="{&quot;isPaintingLayer&quot;:true}" fill-rule="nonzero" stroke-linejoin="miter" stroke-miterlimit="10" stroke-dasharray="" stroke-dashoffset="0" style="mix-blend-mode: normal"><path d="" fill="#ffffff" stroke="none" stroke-width="0.5" stroke-linecap="butt"/><path d="M220.07407,180.00597c0,-10.96648 8.89009,-19.85656 19.85656,-19.85656c10.96648,0 19.85656,8.89009 19.85656,19.85656c0,10.96648 -8.89009,19.85656 -19.85656,19.85656c-10.96648,0 -19.85656,-8.89009 -19.85656,-19.85656z" fill="url(#color-1)" stroke="none" stroke-width="0" stroke-linecap="butt"/><path d="M239.73082,196.22935v-32.68121" fill="#ffffff" stroke="#ffffff" stroke-width="7.5" stroke-linecap="round"/><path d="M223.58766,179.88549h32.54684" fill="none" stroke="#ffffff" stroke-width="7.5" stroke-linecap="round"/><path d="M220.04718,176.71314c0,-0.13128 0.10119,-0.23892 0.22983,-0.2492c-0.01604,-0.03299 -0.02504,-0.07003 -0.02504,-0.10918c0,-0.13807 0.11193,-0.25 0.25,-0.25c0.03648,0 0.07114,0.00781 0.10239,0.02186c0.03125,-0.01405 0.06591,-0.02186 0.1024,-0.02186c0.07322,0 0.13908,0.03148 0.1848,0.08163c0.01411,-0.00853 0.02839,-0.01669 0.04282,-0.02443c0.03624,-0.09339 0.12696,-0.15959 0.23315,-0.15959c0.0608,0 0.11652,0.0217 0.15986,0.05778c0.06639,0.00003 0.13441,0.00841 0.20362,0.02608c0.0487,-0.00576 0.09824,-0.00872 0.14849,-0.00872c0.11524,0 0.22683,0.01559 0.33278,0.04478c0.06811,-0.01876 0.13854,-0.03191 0.21077,-0.0389c0.12897,-0.04606 0.24789,-0.0439 0.3543,-0.00423c0.68712,-0.04509 1.2807,0.10509 1.37587,0.58093c0.19145,0.21962 0.3074,0.50678 0.3074,0.82102c0,0.61515 -0.44436,1.12652 -1.0296,1.23063c-0.74478,0.8531 -1.67356,1.82542 -2.11468,1.91365c-1.66861,0.33372 -1.2587,-2.91414 -0.83777,-3.61568c0.0094,-0.01566 0.01979,-0.03128 0.03113,-0.04685c-0.00414,0.0002 -0.00831,0.0003 -0.01251,0.0003c-0.13807,0 -0.25,-0.11193 -0.25,-0.25z" fill="#ffffff" stroke="none" stroke-width="0.5" stroke-linecap="butt"/><path d="M219.99598,183.41991c0,-0.12817 0.06571,-0.19063 0.12975,-0.22107c-0.04369,-0.03665 -0.07855,-0.09515 -0.07855,-0.18851c0,-0.06439 0.01659,-0.1122 0.04122,-0.14769l-0.09242,-0.10828c0.00468,-0.21956 0.07111,-0.43859 0.16308,-0.63894c-0.05914,-0.28091 -0.11188,-0.52974 -0.11188,-0.84577c0,0 0,-0.25 0.25,-0.25c0.25,0 0.25,0.25 0.25,0.25c0,0.3257 0.05893,0.55727 0.12297,0.85305c0.02839,-0.0307 0.06976,-0.0567 0.12956,-0.07165c0.24254,-0.06063 0.30317,0.1819 0.30317,0.1819c0.01193,0.10136 -0.0018,0.2144 -0.03652,0.3226h0.20356c0.13807,0 0.25,0.11193 0.25,0.25c0,0.00365 -0.00008,0.00728 -0.00023,0.0109c0.0175,-0.00318 0.03659,-0.00492 0.05741,-0.00492c0.25,0 0.25,0.25 0.25,0.25l-0.0287,0.04633c0.33731,0.04306 0.67052,0.06355 0.95623,0.06205c0,0 0.18147,0 0.23519,0.15461c0.0401,-0.00224 0.24438,-0.00256 0.26926,0.22138c0.02761,0.24847 -0.22086,0.27607 -0.22086,0.27607c-0.9089,0.10025 -1.69829,-0.15528 -2.58745,-0.15206h-0.20479c0,0 -0.25,0 -0.25,-0.25z" fill="#ffffff" stroke="none" stroke-width="0.5" stroke-linecap="butt"/><path d="M259.49139,178.51946c-0.39312,-0.05833 -1.00272,-0.88162 -1.29516,-1.5675c-0.16848,-0.13216 -0.31486,-0.26678 -0.40215,-0.37951c-0.17336,-0.01266 -0.36317,-0.01889 -0.57095,-0.01889c0,0 -0.25,0 -0.25,-0.25c0,-0.25 0.25,-0.25 0.25,-0.25c0.32251,0 0.60873,0.01568 0.86274,0.04702c0.06048,-0.07811 0.1716,-0.10388 0.34618,-0.05559c0.07361,-0.06425 0.17467,-0.06425 0.17467,-0.06425c0.31556,0 0.6311,0 0.94666,0h0.07282c0,0 0.25,0 0.25,0.25c0,0.22438 -0.20137,0.24738 -0.24266,0.24973c0.26683,0.26026 0.33932,0.66306 0.31143,1.0422c0.15638,0.61527 0.14657,1.42305 0.14969,2.42189c-0.00245,0.6345 -0.14516,1.13969 -0.36855,1.59126c0.08834,0.03856 0.15008,0.12669 0.15008,0.22924v0.00067c0.16472,0.26264 0.24843,0.62867 0.13491,1.09125c-0.12,0.48901 -0.48768,0.71295 -0.93601,0.80874c-0.00485,0.24265 -0.24992,0.24265 -0.24992,0.24265h-0.07282c-0.16503,-0.02581 -0.28362,-0.06496 -0.36494,-0.1151c-0.06835,0.04228 -0.1448,0.04228 -0.1448,0.04228l-0.34872,-0.00669c-0.08958,-0.04286 -0.17976,-0.08452 -0.27048,-0.12498c-0.1454,-0.00765 -0.28086,-0.01398 -0.40029,-0.01398c0,0 -0.25,0 -0.25,-0.25c0,-0.09026 0.0326,-0.14794 0.07424,-0.18479c0.00355,-0.017 0.00894,-0.0349 0.01646,-0.0537c0.09285,-0.23212 0.32497,-0.13927 0.32497,-0.13927c0.12957,0.05191 0.25859,0.10583 0.38539,0.16437c-0.00003,-0.00168 -0.00004,-0.00337 -0.00004,-0.00508c0,-0.25 0.25,-0.25 0.25,-0.25l0.01846,0.1c0.32593,-0.42667 0.65396,-0.79087 0.92395,-1.17827c-0.29692,-0.50994 -0.01166,-0.69447 0.34218,-0.58377c0.17884,-0.38336 0.28841,-0.81799 0.28591,-1.36486c0.00203,-0.56446 0.01752,-1.05134 0.00545,-1.46582c-0.03737,0.03108 -0.07428,0.04584 -0.1087,0.04073z" fill="#ffffff" stroke="none" stroke-width="0.5" stroke-linecap="butt"/><path d="M237.40392,160.04064c0.01037,0.00503 0.02049,0.01013 0.03038,0.01528c0.06826,-0.03172 0.13392,-0.07034 0.19591,-0.11838l0.44643,0.23383c0,0 0.1118,0.2236 -0.11181,0.33541c-0.0718,0.0359 -0.13207,0.03722 -0.18081,0.02246c-0.00133,0.35329 -0.41869,0.71541 -0.76563,0.77242c-0.01064,0.07057 -0.02808,0.14273 -0.05341,0.21365l-0.13143,-0.02761v0.06495c0,0 -0.08671,0 -0.17549,0c0.02236,0.35836 -0.21117,0.64971 -0.22988,1.03627c0,0.00816 0,0.01632 0,0.02448v0.14564c0,0 0,0.25 -0.25,0.25c-0.25,0 -0.25,-0.25 -0.25,-0.25c0,-0.64777 -0.47197,-1.67055 0.07322,-2.21574c0.34842,-0.34842 0.87917,-0.28344 1.32664,-0.44394z" fill="#ffffff" stroke="none" stroke-width="0.5" stroke-linecap="butt"/><path d="M241.93095,160.97009c0,0 -0.17438,0 -0.23186,-0.14564c-0.03629,0 -0.05942,0 -0.05942,0c-0.13807,0 -0.25,-0.11193 -0.25,-0.25c0,-0.0271 0.00431,-0.05319 0.01228,-0.07762c-0.16324,0.03775 -0.34783,0.09343 -0.55707,0.16916l0.0249,0.01243c0,0 -0.17678,0.17677 -0.35355,0c-0.17677,-0.17677 0,-0.35356 0,-0.35356l0.17054,-0.13322c0.15007,-0.04691 0.49662,-0.09353 0.888,-0.11715c0.03949,-0.02611 0.08683,-0.04131 0.13772,-0.04131h0.29128v0.02586c0.05612,-0.0006 0.11206,-0.0006 0.16742,0.00007c0.17308,-0.03827 0.33983,-0.02473 0.49264,0.02784c0.22958,0.02618 0.41584,0.07217 0.51327,0.14481c0.14195,0.10584 0.23377,0.46136 0.26455,0.84363c0.0165,0.10155 0.02085,0.20508 0.0114,0.30785c-0.00149,0.2183 -0.024,0.42581 -0.06959,0.58049c0.10825,0.06967 0.10824,0.21276 0.10824,0.21276v0.29128c0,0.13807 -0.11193,0.25 -0.25,0.25c-0.11898,0 -0.21854,-0.08311 -0.2438,-0.19444l-0.05265,-0.21057c-0.0559,0.04223 -0.13999,0.07066 -0.25227,0.01452c-0.2236,-0.11181 -0.11181,-0.33542 -0.11181,-0.33542l0.15775,-0.24185c0.04137,-0.01772 0.07908,-0.03573 0.11332,-0.054c-0.0318,-0.12495 -0.06021,-0.24656 -0.08991,-0.36183h-0.32166v-0.15367c-0.07282,0.00268 -0.14564,0.00536 -0.21846,0.00804c0,0 -0.2285,0 -0.24859,-0.21846z" fill="#ffffff" stroke="none" stroke-width="0.5" stroke-linecap="butt"/><path d="M243.74171,198.03324c0,1.40376 0.23196,2.02922 -1.44666,2.02922h-0.14564c0,0 -0.2087,0 -0.35644,-0.13484c-0.18711,0.03737 -0.38441,0.05857 -0.59022,0.06202h-0.43692c0,0 -0.5,0 -0.5,-0.5c0,-0.5 0.5,-0.5 0.5,-0.5h0.43692c0.49886,0.01245 0.90582,-0.1365 1.17053,-0.39363c0.07627,-0.28389 0.07462,-0.85705 0.05534,-1.40321c-0.11954,-0.09136 -0.19665,-0.23543 -0.19665,-0.3975c0,-0.14569 0.06231,-0.27683 0.16174,-0.36821c-0.00921,-0.18586 -0.01611,-0.33816 -0.01611,-0.4328v-0.3641c0,0 0,-0.5 0.5,-0.5c0.5,0 0.5,0.5 0.5,0.5v0.3641c0,0.01834 0.00011,0.0368 0.0003,0.05539c0.17176,0.07915 0.29098,0.25283 0.29098,0.45435c0,0.13599 -0.05429,0.2593 -0.14238,0.34944c0.13022,0.34476 0.18647,0.67761 0.17822,0.98943c0.03699,0.10224 0.03699,0.19035 0.03699,0.19035z" fill="#ffffff" stroke="none" stroke-width="0.5" stroke-linecap="butt"/><path d="M235.76215,199.18443c0,0 -0.27735,-0.41602 0.13868,-0.69337c0.03477,-0.02318 0.06857,-0.04152 0.10133,-0.05566c-0.14265,-0.44555 -0.17834,-1.06003 -0.17834,-1.93137c0,0 0,-0.5 0.5,-0.5c0.5,0 0.5,0.5 0.5,0.5c0,0.34441 -0.21598,1.97362 0.09295,2.22269c0.50161,-0.17962 1.08968,-0.22271 1.46839,0.04343c0.14533,-0.00415 0.26451,-0.00427 0.33387,0.00526l0.57303,0.07163c0.25006,0.02758 0.44456,0.23955 0.44456,0.49696c0,0.27614 -0.22386,0.5 -0.5,0.5h-0.43125c-0.27269,0.12587 -0.52302,0.22567 -0.61677,0.21765c-0.07497,-0.00642 -0.20981,-0.04776 -0.36625,-0.11029c-0.03957,0.01663 -0.06649,0.02336 -0.06649,0.02336l-0.41255,0.08775c-0.29435,-0.00868 -0.5343,-0.03418 -0.72652,-0.07261c-0.19357,0.03963 -0.33328,-0.05054 -0.41912,-0.13829c-0.18277,-0.09929 -0.2487,-0.22472 -0.22933,-0.35787c-0.06873,-0.10309 -0.13745,-0.20618 -0.20618,-0.30927z" fill="#ffffff" stroke="none" stroke-width="0.5" stroke-linecap="butt"/><path d="" fill="#ffffff" stroke="none" stroke-width="0.5" stroke-linecap="butt"/></g></g></svg>